<mxfile host="Electron" agent="Mozilla/5.0 (Windows NT 10.0; Win64; x64) AppleWebKit/537.36 (KHTML, like Gecko) draw.io/27.0.5 Chrome/134.0.6998.205 Electron/35.3.0 Safari/537.36" version="27.0.5" pages="3">
  <diagram name="Add-Datasource-Flow" id="0AGCFBf2FpTad1DNYMGd">
    <mxGraphModel dx="1864" dy="1190" grid="1" gridSize="10" guides="1" tooltips="1" connect="1" arrows="1" fold="1" page="1" pageScale="1" pageWidth="850" pageHeight="1100" math="0" shadow="0">
      <root>
        <mxCell id="0" />
        <mxCell id="1" parent="0" />
        <mxCell id="Wv8BJaC0_amkNu4p2bPB-7" value="" style="rounded=1;whiteSpace=wrap;html=1;arcSize=9;dashed=1;fillColor=none;" parent="1" vertex="1">
          <mxGeometry x="1015" y="520" width="550" height="360" as="geometry" />
        </mxCell>
        <mxCell id="Wv8BJaC0_amkNu4p2bPB-1" value="/ckb/GET/agency/data/exists" style="rounded=1;whiteSpace=wrap;html=1;" parent="1" vertex="1">
          <mxGeometry x="1090" y="550" width="180" height="80" as="geometry" />
        </mxCell>
        <mxCell id="Wv8BJaC0_amkNu4p2bPB-2" value="/globalclassifier/POST/cronmanager&lt;div&gt;/agency/data/import&lt;/div&gt;" style="rounded=1;whiteSpace=wrap;html=1;" parent="1" vertex="1">
          <mxGeometry x="624" y="625" width="216" height="100" as="geometry" />
        </mxCell>
        <mxCell id="Wv8BJaC0_amkNu4p2bPB-3" value="" style="rounded=1;whiteSpace=wrap;html=1;" parent="1" vertex="1">
          <mxGeometry x="171" y="663" width="220" height="170" as="geometry" />
        </mxCell>
        <mxCell id="Wv8BJaC0_amkNu4p2bPB-4" value="Integrate Agencies&amp;nbsp;&lt;div&gt;Main Interface&lt;/div&gt;" style="text;html=1;align=center;verticalAlign=middle;whiteSpace=wrap;rounded=0;" parent="1" vertex="1">
          <mxGeometry x="212.94999999999976" y="776.5" width="139.58" height="33.5" as="geometry" />
        </mxCell>
        <mxCell id="Wv8BJaC0_amkNu4p2bPB-5" value="" style="image;sketch=0;aspect=fixed;html=1;points=[];align=center;fontSize=12;image=img/lib/mscae/Shared_Dashboard.svg;" parent="1" vertex="1">
          <mxGeometry x="229.99999999999966" y="690" width="105.49" height="86.5" as="geometry" />
        </mxCell>
        <mxCell id="Wv8BJaC0_amkNu4p2bPB-8" value="Common Knowledge Base" style="text;html=1;align=center;verticalAlign=middle;whiteSpace=wrap;rounded=0;" parent="1" vertex="1">
          <mxGeometry x="1235" y="520" width="192" height="30" as="geometry" />
        </mxCell>
        <mxCell id="YWxtWIN07UHfHVU3wg7l-54" style="edgeStyle=orthogonalEdgeStyle;rounded=0;orthogonalLoop=1;jettySize=auto;html=1;exitX=0.547;exitY=0.966;exitDx=0;exitDy=0;entryX=0.5;entryY=0;entryDx=0;entryDy=0;exitPerimeter=0;" parent="1" source="Wv8BJaC0_amkNu4p2bPB-2" target="Wv8BJaC0_amkNu4p2bPB-44" edge="1">
          <mxGeometry relative="1" as="geometry">
            <mxPoint x="800" y="875" as="sourcePoint" />
          </mxGeometry>
        </mxCell>
        <mxCell id="Wv8BJaC0_amkNu4p2bPB-39" value="" style="rounded=1;whiteSpace=wrap;html=1;" parent="1" vertex="1">
          <mxGeometry x="1305" y="630" width="180" height="140" as="geometry" />
        </mxCell>
        <mxCell id="Wv8BJaC0_amkNu4p2bPB-41" value="" style="sketch=0;pointerEvents=1;shadow=0;dashed=0;html=1;strokeColor=none;fillColor=#DF8C42;labelPosition=center;verticalLabelPosition=bottom;verticalAlign=top;align=center;outlineConnect=0;shape=mxgraph.veeam2.aws_s3;" parent="1" vertex="1">
          <mxGeometry x="1365" y="655" width="64" height="70" as="geometry" />
        </mxCell>
        <mxCell id="Wv8BJaC0_amkNu4p2bPB-42" value="&lt;span style=&quot;font-size: 11px; text-wrap-mode: nowrap; background-color: rgb(18, 18, 18);&quot;&gt;CKB storage&lt;/span&gt;" style="text;html=1;align=center;verticalAlign=middle;whiteSpace=wrap;rounded=0;" parent="1" vertex="1">
          <mxGeometry x="1323.5" y="733" width="145" height="30" as="geometry" />
        </mxCell>
        <mxCell id="Wv8BJaC0_amkNu4p2bPB-43" value="&lt;div style=&quot;font-size: 11px; text-wrap-mode: nowrap;&quot;&gt;&lt;span style=&quot;background-color: rgb(18, 18, 18);&quot;&gt;Returns S3 URL with any authentication&lt;/span&gt;&lt;/div&gt;&lt;div style=&quot;font-size: 11px; text-wrap-mode: nowrap;&quot;&gt;&lt;span style=&quot;background-color: rgb(18, 18, 18);&quot;&gt;required&lt;/span&gt;&lt;/div&gt;" style="text;html=1;align=center;verticalAlign=middle;whiteSpace=wrap;rounded=0;" parent="1" vertex="1">
          <mxGeometry x="1070" y="360" width="145" height="30" as="geometry" />
        </mxCell>
        <mxCell id="Wv8BJaC0_amkNu4p2bPB-47" style="edgeStyle=orthogonalEdgeStyle;rounded=0;orthogonalLoop=1;jettySize=auto;html=1;entryX=0;entryY=0.25;entryDx=0;entryDy=0;" parent="1" source="Wv8BJaC0_amkNu4p2bPB-44" target="Wv8BJaC0_amkNu4p2bPB-46" edge="1">
          <mxGeometry relative="1" as="geometry">
            <mxPoint x="890" y="960" as="sourcePoint" />
            <Array as="points">
              <mxPoint x="1030" y="970" />
              <mxPoint x="1030" y="965" />
            </Array>
          </mxGeometry>
        </mxCell>
        <mxCell id="Wv8BJaC0_amkNu4p2bPB-60" style="edgeStyle=orthogonalEdgeStyle;rounded=0;orthogonalLoop=1;jettySize=auto;html=1;exitX=1.008;exitY=0.387;exitDx=0;exitDy=0;entryX=0;entryY=0.5;entryDx=0;entryDy=0;exitPerimeter=0;" parent="1" source="Wv8BJaC0_amkNu4p2bPB-55" target="Wv8BJaC0_amkNu4p2bPB-58" edge="1">
          <mxGeometry relative="1" as="geometry">
            <mxPoint x="1047.5" y="1040" as="sourcePoint" />
          </mxGeometry>
        </mxCell>
        <mxCell id="Wv8BJaC0_amkNu4p2bPB-44" value="/dataset-generator/&lt;span style=&quot;background-color: transparent; color: light-dark(rgb(0, 0, 0), rgb(255, 255, 255));&quot;&gt;POST/cronmanager /dataset/generate&lt;/span&gt;" style="rounded=1;whiteSpace=wrap;html=1;container=1;" parent="1" vertex="1">
          <mxGeometry x="608" y="934" width="270" height="100" as="geometry">
            <mxRectangle x="740" y="461" width="350" height="30" as="alternateBounds" />
          </mxGeometry>
        </mxCell>
        <mxCell id="Wv8BJaC0_amkNu4p2bPB-50" style="edgeStyle=orthogonalEdgeStyle;rounded=0;orthogonalLoop=1;jettySize=auto;html=1;exitX=0;exitY=0.75;exitDx=0;exitDy=0;" parent="1" source="Wv8BJaC0_amkNu4p2bPB-46" edge="1">
          <mxGeometry relative="1" as="geometry">
            <mxPoint x="880" y="1015" as="targetPoint" />
          </mxGeometry>
        </mxCell>
        <mxCell id="Wv8BJaC0_amkNu4p2bPB-46" value="/globalclassifier/POST/s3-ferry/v1/files/copy" style="rounded=1;whiteSpace=wrap;html=1;" parent="1" vertex="1">
          <mxGeometry x="1180" y="940" width="270" height="100" as="geometry" />
        </mxCell>
        <mxCell id="Wv8BJaC0_amkNu4p2bPB-48" style="edgeStyle=orthogonalEdgeStyle;rounded=0;orthogonalLoop=1;jettySize=auto;html=1;entryX=0.595;entryY=-0.026;entryDx=0;entryDy=0;entryPerimeter=0;" parent="1" source="Wv8BJaC0_amkNu4p2bPB-39" target="Wv8BJaC0_amkNu4p2bPB-46" edge="1">
          <mxGeometry relative="1" as="geometry" />
        </mxCell>
        <mxCell id="Wv8BJaC0_amkNu4p2bPB-51" value="" style="rounded=1;whiteSpace=wrap;html=1;" parent="1" vertex="1">
          <mxGeometry x="1490" y="1170" width="180" height="140" as="geometry" />
        </mxCell>
        <mxCell id="Wv8BJaC0_amkNu4p2bPB-52" value="" style="sketch=0;pointerEvents=1;shadow=0;dashed=0;html=1;strokeColor=none;fillColor=#DF8C42;labelPosition=center;verticalLabelPosition=bottom;verticalAlign=top;align=center;outlineConnect=0;shape=mxgraph.veeam2.aws_s3;" parent="1" vertex="1">
          <mxGeometry x="1558" y="1200" width="64" height="70" as="geometry" />
        </mxCell>
        <mxCell id="Wv8BJaC0_amkNu4p2bPB-53" value="&lt;span style=&quot;font-size: 11px; text-wrap-mode: nowrap; background-color: rgb(18, 18, 18);&quot;&gt;Global Classifier storage&lt;/span&gt;" style="text;html=1;align=center;verticalAlign=middle;whiteSpace=wrap;rounded=0;" parent="1" vertex="1">
          <mxGeometry x="1530" y="1270" width="145" height="30" as="geometry" />
        </mxCell>
        <mxCell id="Wv8BJaC0_amkNu4p2bPB-55" value="/globalclassifier/POST/s3-ferry/v1/files/upload" style="rounded=1;whiteSpace=wrap;html=1;" parent="1" vertex="1">
          <mxGeometry x="630" y="1140" width="270" height="100" as="geometry" />
        </mxCell>
        <mxCell id="Wv8BJaC0_amkNu4p2bPB-56" style="edgeStyle=orthogonalEdgeStyle;rounded=0;orthogonalLoop=1;jettySize=auto;html=1;entryX=0;entryY=0.25;entryDx=0;entryDy=0;exitX=1;exitY=0.611;exitDx=0;exitDy=0;exitPerimeter=0;" parent="1" source="Wv8BJaC0_amkNu4p2bPB-55" target="Wv8BJaC0_amkNu4p2bPB-51" edge="1">
          <mxGeometry relative="1" as="geometry">
            <mxPoint x="1115" y="1190" as="sourcePoint" />
            <Array as="points">
              <mxPoint x="900" y="1205" />
            </Array>
          </mxGeometry>
        </mxCell>
        <mxCell id="Wv8BJaC0_amkNu4p2bPB-59" style="edgeStyle=orthogonalEdgeStyle;rounded=0;orthogonalLoop=1;jettySize=auto;html=1;entryX=0.5;entryY=0;entryDx=0;entryDy=0;exitX=1;exitY=0.5;exitDx=0;exitDy=0;" parent="1" source="Wv8BJaC0_amkNu4p2bPB-58" target="Wv8BJaC0_amkNu4p2bPB-51" edge="1">
          <mxGeometry relative="1" as="geometry" />
        </mxCell>
        <mxCell id="Wv8BJaC0_amkNu4p2bPB-58" value="/globalclassifier/POST/s3-ferry/v1/files/delete" style="rounded=1;whiteSpace=wrap;html=1;" parent="1" vertex="1">
          <mxGeometry x="1275" y="1070" width="225" height="70" as="geometry" />
        </mxCell>
        <mxCell id="YWxtWIN07UHfHVU3wg7l-45" style="edgeStyle=orthogonalEdgeStyle;rounded=0;orthogonalLoop=1;jettySize=auto;html=1;exitX=0.75;exitY=1;exitDx=0;exitDy=0;entryX=0.75;entryY=0;entryDx=0;entryDy=0;" parent="1" source="YWxtWIN07UHfHVU3wg7l-1" target="YWxtWIN07UHfHVU3wg7l-6" edge="1">
          <mxGeometry relative="1" as="geometry" />
        </mxCell>
        <mxCell id="YWxtWIN07UHfHVU3wg7l-1" value="/globalclassifier/GET/agencies" style="rounded=1;whiteSpace=wrap;html=1;" parent="1" vertex="1">
          <mxGeometry x="146" y="900" width="270" height="100" as="geometry" />
        </mxCell>
        <mxCell id="YWxtWIN07UHfHVU3wg7l-44" style="edgeStyle=orthogonalEdgeStyle;rounded=0;orthogonalLoop=1;jettySize=auto;html=1;exitX=0.25;exitY=0;exitDx=0;exitDy=0;entryX=0.25;entryY=1;entryDx=0;entryDy=0;" parent="1" source="YWxtWIN07UHfHVU3wg7l-6" target="YWxtWIN07UHfHVU3wg7l-1" edge="1">
          <mxGeometry relative="1" as="geometry" />
        </mxCell>
        <mxCell id="YWxtWIN07UHfHVU3wg7l-51" style="edgeStyle=orthogonalEdgeStyle;rounded=0;orthogonalLoop=1;jettySize=auto;html=1;exitX=0;exitY=0.5;exitDx=0;exitDy=0;" parent="1" source="YWxtWIN07UHfHVU3wg7l-6" edge="1">
          <mxGeometry relative="1" as="geometry">
            <mxPoint x="292.5" y="1255" as="sourcePoint" />
            <mxPoint x="120" y="520" as="targetPoint" />
          </mxGeometry>
        </mxCell>
        <mxCell id="YWxtWIN07UHfHVU3wg7l-6" value="/globalclassifier/resql/get-integrated-agency" style="rounded=1;whiteSpace=wrap;html=1;" parent="1" vertex="1">
          <mxGeometry x="146" y="1090" width="270" height="100" as="geometry" />
        </mxCell>
        <mxCell id="YWxtWIN07UHfHVU3wg7l-8" value="GcIntegratedAgencies" style="swimlane;fontStyle=0;childLayout=stackLayout;horizontal=1;startSize=30;horizontalStack=0;resizeParent=1;resizeParentMax=0;resizeLast=0;collapsible=1;marginBottom=0;whiteSpace=wrap;html=1;" parent="1" vertex="1">
          <mxGeometry x="49.35" y="130" width="230" height="390" as="geometry" />
        </mxCell>
        <mxCell id="YWxtWIN07UHfHVU3wg7l-9" value="agency_id: 123" style="text;strokeColor=none;fillColor=none;align=left;verticalAlign=middle;spacingLeft=4;spacingRight=4;overflow=hidden;points=[[0,0.5],[1,0.5]];portConstraint=eastwest;rotatable=0;whiteSpace=wrap;html=1;" parent="YWxtWIN07UHfHVU3wg7l-8" vertex="1">
          <mxGeometry y="30" width="230" height="30" as="geometry" />
        </mxCell>
        <mxCell id="YWxtWIN07UHfHVU3wg7l-10" value="group_key: String (123_&amp;lt;&amp;lt;epochtimestamp&amp;gt;&amp;gt;)" style="text;strokeColor=none;fillColor=none;align=left;verticalAlign=middle;spacingLeft=4;spacingRight=4;overflow=hidden;points=[[0,0.5],[1,0.5]];portConstraint=eastwest;rotatable=0;whiteSpace=wrap;html=1;" parent="YWxtWIN07UHfHVU3wg7l-8" vertex="1">
          <mxGeometry y="60" width="230" height="30" as="geometry" />
        </mxCell>
        <mxCell id="YWxtWIN07UHfHVU3wg7l-11" value="agency_name: String" style="text;strokeColor=none;fillColor=none;align=left;verticalAlign=middle;spacingLeft=4;spacingRight=4;overflow=hidden;points=[[0,0.5],[1,0.5]];portConstraint=eastwest;rotatable=0;whiteSpace=wrap;html=1;" parent="YWxtWIN07UHfHVU3wg7l-8" vertex="1">
          <mxGeometry y="90" width="230" height="30" as="geometry" />
        </mxCell>
        <mxCell id="YWxtWIN07UHfHVU3wg7l-15" value="latest: Bool (true || false)" style="text;strokeColor=none;fillColor=none;align=left;verticalAlign=middle;spacingLeft=4;spacingRight=4;overflow=hidden;points=[[0,0.5],[1,0.5]];portConstraint=eastwest;rotatable=0;whiteSpace=wrap;html=1;" parent="YWxtWIN07UHfHVU3wg7l-8" vertex="1">
          <mxGeometry y="120" width="230" height="30" as="geometry" />
        </mxCell>
        <mxCell id="YWxtWIN07UHfHVU3wg7l-33" value="deployment_status: (deployed || testing || undeployed&lt;span style=&quot;background-color: transparent; color: light-dark(rgb(0, 0, 0), rgb(255, 255, 255));&quot;&gt;)&lt;/span&gt;" style="text;strokeColor=none;fillColor=none;align=left;verticalAlign=middle;spacingLeft=4;spacingRight=4;overflow=hidden;points=[[0,0.5],[1,0.5]];portConstraint=eastwest;rotatable=0;whiteSpace=wrap;html=1;" parent="YWxtWIN07UHfHVU3wg7l-8" vertex="1">
          <mxGeometry y="150" width="230" height="30" as="geometry" />
        </mxCell>
        <mxCell id="YWxtWIN07UHfHVU3wg7l-16" value="is_enabled: Bool (true || false)" style="text;strokeColor=none;fillColor=none;align=left;verticalAlign=middle;spacingLeft=4;spacingRight=4;overflow=hidden;points=[[0,0.5],[1,0.5]];portConstraint=eastwest;rotatable=0;whiteSpace=wrap;html=1;" parent="YWxtWIN07UHfHVU3wg7l-8" vertex="1">
          <mxGeometry y="180" width="230" height="30" as="geometry" />
        </mxCell>
        <mxCell id="jMAyHggQgILbENjjjGeT-1" value="agency_data_hash:&amp;nbsp; String" style="text;strokeColor=none;fillColor=none;align=left;verticalAlign=middle;spacingLeft=4;spacingRight=4;overflow=hidden;points=[[0,0.5],[1,0.5]];portConstraint=eastwest;rotatable=0;whiteSpace=wrap;html=1;" parent="YWxtWIN07UHfHVU3wg7l-8" vertex="1">
          <mxGeometry y="210" width="230" height="30" as="geometry" />
        </mxCell>
        <mxCell id="YWxtWIN07UHfHVU3wg7l-17" value="enable_allowed: Bool (true || false)" style="text;strokeColor=none;fillColor=none;align=left;verticalAlign=middle;spacingLeft=4;spacingRight=4;overflow=hidden;points=[[0,0.5],[1,0.5]];portConstraint=eastwest;rotatable=0;whiteSpace=wrap;html=1;" parent="YWxtWIN07UHfHVU3wg7l-8" vertex="1">
          <mxGeometry y="240" width="230" height="30" as="geometry" />
        </mxCell>
        <mxCell id="YWxtWIN07UHfHVU3wg7l-18" value="last_model_trained: String" style="text;strokeColor=none;fillColor=none;align=left;verticalAlign=middle;spacingLeft=4;spacingRight=4;overflow=hidden;points=[[0,0.5],[1,0.5]];portConstraint=eastwest;rotatable=0;whiteSpace=wrap;html=1;" parent="YWxtWIN07UHfHVU3wg7l-8" vertex="1">
          <mxGeometry y="270" width="230" height="30" as="geometry" />
        </mxCell>
        <mxCell id="YWxtWIN07UHfHVU3wg7l-20" value="last_updated_timestamp: Int" style="text;strokeColor=none;fillColor=none;align=left;verticalAlign=middle;spacingLeft=4;spacingRight=4;overflow=hidden;points=[[0,0.5],[1,0.5]];portConstraint=eastwest;rotatable=0;whiteSpace=wrap;html=1;" parent="YWxtWIN07UHfHVU3wg7l-8" vertex="1">
          <mxGeometry y="300" width="230" height="30" as="geometry" />
        </mxCell>
        <mxCell id="asxbecY70ZySBZZj46JK-5" value="last_trained_timestamp: Int" style="text;strokeColor=none;fillColor=none;align=left;verticalAlign=middle;spacingLeft=4;spacingRight=4;overflow=hidden;points=[[0,0.5],[1,0.5]];portConstraint=eastwest;rotatable=0;whiteSpace=wrap;html=1;" vertex="1" parent="YWxtWIN07UHfHVU3wg7l-8">
          <mxGeometry y="330" width="230" height="30" as="geometry" />
        </mxCell>
        <mxCell id="F9SzMtwg83-o3SOkV0sU-2" value="&lt;span style=&quot;font-size: 11px; text-align: center; text-wrap-mode: nowrap; background-color: rgb(18, 18, 18);&quot;&gt;sync_status: string (Unavailable in CKB,&amp;nbsp;&lt;/span&gt;&lt;div&gt;&lt;span style=&quot;font-size: 11px; text-align: center; text-wrap-mode: nowrap; background-color: rgb(18, 18, 18);&quot;&gt;Synced with CKB, Resync needed with CKB)&lt;/span&gt;&lt;/div&gt;&lt;div&gt;&lt;span style=&quot;font-size: 11px; text-align: center; text-wrap-mode: nowrap; background-color: rgb(18, 18, 18);&quot;&gt;&lt;br&gt;&lt;/span&gt;&lt;/div&gt;" style="text;strokeColor=none;fillColor=none;align=left;verticalAlign=middle;spacingLeft=4;spacingRight=4;overflow=hidden;points=[[0,0.5],[1,0.5]];portConstraint=eastwest;rotatable=0;whiteSpace=wrap;html=1;" vertex="1" parent="YWxtWIN07UHfHVU3wg7l-8">
          <mxGeometry y="360" width="230" height="30" as="geometry" />
        </mxCell>
        <mxCell id="YWxtWIN07UHfHVU3wg7l-39" style="edgeStyle=orthogonalEdgeStyle;rounded=0;orthogonalLoop=1;jettySize=auto;html=1;exitX=0.75;exitY=1;exitDx=0;exitDy=0;entryX=0.706;entryY=0.01;entryDx=0;entryDy=0;entryPerimeter=0;" parent="1" source="Wv8BJaC0_amkNu4p2bPB-3" target="YWxtWIN07UHfHVU3wg7l-1" edge="1">
          <mxGeometry relative="1" as="geometry" />
        </mxCell>
        <mxCell id="YWxtWIN07UHfHVU3wg7l-41" style="edgeStyle=orthogonalEdgeStyle;rounded=0;orthogonalLoop=1;jettySize=auto;html=1;exitX=0.25;exitY=0;exitDx=0;exitDy=0;entryX=0.189;entryY=1.006;entryDx=0;entryDy=0;entryPerimeter=0;" parent="1" source="YWxtWIN07UHfHVU3wg7l-1" target="Wv8BJaC0_amkNu4p2bPB-3" edge="1">
          <mxGeometry relative="1" as="geometry" />
        </mxCell>
        <mxCell id="YWxtWIN07UHfHVU3wg7l-52" style="edgeStyle=orthogonalEdgeStyle;rounded=0;orthogonalLoop=1;jettySize=auto;html=1;exitX=0;exitY=0.5;exitDx=0;exitDy=0;entryX=0.25;entryY=1;entryDx=0;entryDy=0;" parent="1" source="YWxtWIN07UHfHVU3wg7l-20" target="YWxtWIN07UHfHVU3wg7l-6" edge="1">
          <mxGeometry relative="1" as="geometry">
            <Array as="points">
              <mxPoint x="29" y="445" />
              <mxPoint x="29" y="1250" />
              <mxPoint x="214" y="1250" />
            </Array>
          </mxGeometry>
        </mxCell>
        <mxCell id="YWxtWIN07UHfHVU3wg7l-53" value="/globalclassifier/POST/agency/integrate" style="rounded=1;whiteSpace=wrap;html=1;" parent="1" vertex="1">
          <mxGeometry x="360" y="170" width="240" height="83" as="geometry" />
        </mxCell>
        <mxCell id="YWxtWIN07UHfHVU3wg7l-55" value="/globalclassifier/resql/add-integrated-agency" style="rounded=1;whiteSpace=wrap;html=1;" parent="1" vertex="1">
          <mxGeometry x="360" y="350" width="240" height="83" as="geometry" />
        </mxCell>
        <mxCell id="asxbecY70ZySBZZj46JK-1" value="" style="rounded=1;whiteSpace=wrap;html=1;arcSize=9;dashed=1;fillColor=none;" vertex="1" parent="1">
          <mxGeometry x="320" y="10" width="344" height="90" as="geometry" />
        </mxCell>
        <mxCell id="asxbecY70ZySBZZj46JK-2" value="Centops" style="text;html=1;align=center;verticalAlign=middle;whiteSpace=wrap;rounded=0;" vertex="1" parent="1">
          <mxGeometry x="380" y="36" width="192" height="30" as="geometry" />
        </mxCell>
        <mxCell id="asxbecY70ZySBZZj46JK-8" value="" style="endArrow=classic;html=1;rounded=0;exitX=0.471;exitY=1.035;exitDx=0;exitDy=0;exitPerimeter=0;entryX=0.5;entryY=0;entryDx=0;entryDy=0;" edge="1" parent="1" source="asxbecY70ZySBZZj46JK-1" target="YWxtWIN07UHfHVU3wg7l-53">
          <mxGeometry width="50" height="50" relative="1" as="geometry">
            <mxPoint x="540" y="410" as="sourcePoint" />
            <mxPoint x="590" y="360" as="targetPoint" />
          </mxGeometry>
        </mxCell>
        <mxCell id="asxbecY70ZySBZZj46JK-9" value="" style="endArrow=classic;html=1;rounded=0;entryX=1.007;entryY=-0.067;entryDx=0;entryDy=0;entryPerimeter=0;" edge="1" parent="1" target="YWxtWIN07UHfHVU3wg7l-18">
          <mxGeometry width="50" height="50" relative="1" as="geometry">
            <mxPoint x="360" y="400" as="sourcePoint" />
            <mxPoint x="590" y="360" as="targetPoint" />
          </mxGeometry>
        </mxCell>
        <mxCell id="asxbecY70ZySBZZj46JK-11" value="" style="endArrow=classic;html=1;rounded=0;" edge="1" parent="1" target="YWxtWIN07UHfHVU3wg7l-55">
          <mxGeometry width="50" height="50" relative="1" as="geometry">
            <mxPoint x="480" y="260" as="sourcePoint" />
            <mxPoint x="810" y="320" as="targetPoint" />
          </mxGeometry>
        </mxCell>
        <mxCell id="asxbecY70ZySBZZj46JK-16" value="&lt;div style=&quot;font-size: 11px; text-wrap-mode: nowrap;&quot;&gt;&lt;span style=&quot;background-color: rgb(18, 18, 18);&quot;&gt;CKB pushes the data to GC&amp;nbsp;&lt;/span&gt;&lt;/div&gt;&lt;div style=&quot;font-size: 11px; text-wrap-mode: nowrap;&quot;&gt;&lt;span style=&quot;background-color: rgb(18, 18, 18);&quot;&gt;when the newly created&lt;/span&gt;&lt;/div&gt;&lt;div style=&quot;font-size: 11px; text-wrap-mode: nowrap;&quot;&gt;&lt;span style=&quot;background-color: rgb(18, 18, 18);&quot;&gt;agencies have data&lt;/span&gt;&lt;/div&gt;" style="text;html=1;align=center;verticalAlign=middle;whiteSpace=wrap;rounded=0;" vertex="1" parent="1">
          <mxGeometry x="1070" y="420" width="145" height="30" as="geometry" />
        </mxCell>
        <mxCell id="asxbecY70ZySBZZj46JK-22" value="" style="endArrow=classic;html=1;rounded=0;exitX=0;exitY=0;exitDx=0;exitDy=0;entryX=1;entryY=0.5;entryDx=0;entryDy=0;" edge="1" parent="1" source="Wv8BJaC0_amkNu4p2bPB-8" target="asxbecY70ZySBZZj46JK-27">
          <mxGeometry width="50" height="50" relative="1" as="geometry">
            <mxPoint x="1010" y="574" as="sourcePoint" />
            <mxPoint x="865" y="574" as="targetPoint" />
            <Array as="points">
              <mxPoint x="1235" y="405" />
            </Array>
          </mxGeometry>
        </mxCell>
        <mxCell id="asxbecY70ZySBZZj46JK-23" value="" style="endArrow=classic;html=1;rounded=0;" edge="1" parent="1">
          <mxGeometry width="50" height="50" relative="1" as="geometry">
            <mxPoint x="330" y="565" as="sourcePoint" />
            <mxPoint x="219" y="520" as="targetPoint" />
            <Array as="points">
              <mxPoint x="219" y="565" />
            </Array>
          </mxGeometry>
        </mxCell>
        <mxCell id="asxbecY70ZySBZZj46JK-25" value="/globalclassifier/resql/update-data-import-complete" style="rounded=1;whiteSpace=wrap;html=1;" vertex="1" parent="1">
          <mxGeometry x="300" y="520" width="228" height="100" as="geometry" />
        </mxCell>
        <mxCell id="asxbecY70ZySBZZj46JK-26" value="" style="endArrow=classic;html=1;rounded=0;exitX=0;exitY=0.5;exitDx=0;exitDy=0;entryX=0.5;entryY=0;entryDx=0;entryDy=0;" edge="1" parent="1" source="asxbecY70ZySBZZj46JK-27" target="Wv8BJaC0_amkNu4p2bPB-2">
          <mxGeometry width="50" height="50" relative="1" as="geometry">
            <mxPoint x="740" y="370" as="sourcePoint" />
            <mxPoint x="740.5" y="550" as="targetPoint" />
            <Array as="points">
              <mxPoint x="732" y="405" />
            </Array>
          </mxGeometry>
        </mxCell>
        <mxCell id="asxbecY70ZySBZZj46JK-27" value="Queue" style="swimlane;whiteSpace=wrap;html=1;" vertex="1" parent="1">
          <mxGeometry x="866" y="360" width="130" height="90" as="geometry" />
        </mxCell>
        <mxCell id="Wv8BJaC0_amkNu4p2bPB-54" style="edgeStyle=orthogonalEdgeStyle;rounded=0;orthogonalLoop=1;jettySize=auto;html=1;" parent="1" source="Wv8BJaC0_amkNu4p2bPB-44" edge="1">
          <mxGeometry relative="1" as="geometry">
            <mxPoint x="742.33" y="1140" as="targetPoint" />
            <mxPoint x="742.33" y="1040" as="sourcePoint" />
          </mxGeometry>
        </mxCell>
        <mxCell id="asxbecY70ZySBZZj46JK-29" value="" style="endArrow=classic;html=1;rounded=0;exitX=0;exitY=0.5;exitDx=0;exitDy=0;entryX=0.75;entryY=1;entryDx=0;entryDy=0;" edge="1" parent="1" source="Wv8BJaC0_amkNu4p2bPB-55" target="asxbecY70ZySBZZj46JK-25">
          <mxGeometry width="50" height="50" relative="1" as="geometry">
            <mxPoint x="510" y="1150" as="sourcePoint" />
            <mxPoint x="990" y="960" as="targetPoint" />
            <Array as="points">
              <mxPoint x="471" y="1190" />
            </Array>
          </mxGeometry>
        </mxCell>
        <mxCell id="F9SzMtwg83-o3SOkV0sU-1" value="&lt;div style=&quot;font-size: 11px; text-wrap-mode: nowrap;&quot;&gt;&lt;span style=&quot;background-color: rgb(18, 18, 18);&quot;&gt;latest: true&lt;/span&gt;&lt;/div&gt;&lt;div style=&quot;font-size: 11px; text-wrap-mode: nowrap;&quot;&gt;&lt;span style=&quot;background-color: rgb(18, 18, 18);&quot;&gt;enable_allowed: true&lt;/span&gt;&lt;/div&gt;&lt;div style=&quot;font-size: 11px; text-wrap-mode: nowrap;&quot;&gt;&lt;span style=&quot;background-color: rgb(18, 18, 18);&quot;&gt;last_updated_timestamp:Date.now()&lt;/span&gt;&lt;/div&gt;&lt;div style=&quot;font-size: 11px; text-wrap-mode: nowrap;&quot;&gt;&lt;span style=&quot;background-color: rgb(18, 18, 18); color: light-dark(rgb(0, 0, 0), rgb(255, 255, 255));&quot;&gt;sync_status: synced with CKB&lt;/span&gt;&lt;/div&gt;" style="text;html=1;align=center;verticalAlign=middle;whiteSpace=wrap;rounded=0;" vertex="1" parent="1">
          <mxGeometry x="490" y="810" width="145" height="30" as="geometry" />
        </mxCell>
      </root>
    </mxGraphModel>
  </diagram>
  <diagram id="r8dmVqE8FRE_XwoR2vSm" name="Page-2">
    <mxGraphModel dx="2528" dy="1011" grid="1" gridSize="10" guides="1" tooltips="1" connect="1" arrows="1" fold="1" page="1" pageScale="1" pageWidth="850" pageHeight="1100" math="0" shadow="0">
      <root>
        <mxCell id="0" />
        <mxCell id="1" parent="0" />
        <mxCell id="a4V3IEd3SIcBsCi2HnZb-10" style="edgeStyle=orthogonalEdgeStyle;rounded=0;orthogonalLoop=1;jettySize=auto;html=1;exitX=1;exitY=0.75;exitDx=0;exitDy=0;entryX=0;entryY=0.5;entryDx=0;entryDy=0;" edge="1" parent="1" source="6R38uolxtdZ9EoSImPw0-1" target="a4V3IEd3SIcBsCi2HnZb-9">
          <mxGeometry relative="1" as="geometry" />
        </mxCell>
        <mxCell id="6R38uolxtdZ9EoSImPw0-1" value="" style="rounded=1;whiteSpace=wrap;html=1;" vertex="1" parent="1">
          <mxGeometry x="120" y="130" width="220" height="170" as="geometry" />
        </mxCell>
        <mxCell id="6R38uolxtdZ9EoSImPw0-2" value="Integrate Agencies&amp;nbsp;&lt;div&gt;Main Interface&lt;/div&gt;" style="text;html=1;align=center;verticalAlign=middle;whiteSpace=wrap;rounded=0;" vertex="1" parent="1">
          <mxGeometry x="160.80999999999977" y="246.5" width="139.58" height="33.5" as="geometry" />
        </mxCell>
        <mxCell id="6R38uolxtdZ9EoSImPw0-3" value="" style="image;sketch=0;aspect=fixed;html=1;points=[];align=center;fontSize=12;image=img/lib/mscae/Shared_Dashboard.svg;" vertex="1" parent="1">
          <mxGeometry x="177.85999999999967" y="150" width="105.49" height="86.5" as="geometry" />
        </mxCell>
        <mxCell id="6R38uolxtdZ9EoSImPw0-19" style="edgeStyle=orthogonalEdgeStyle;rounded=0;orthogonalLoop=1;jettySize=auto;html=1;exitX=0.25;exitY=1;exitDx=0;exitDy=0;entryX=0.25;entryY=0;entryDx=0;entryDy=0;" edge="1" parent="1" source="6R38uolxtdZ9EoSImPw0-4" target="6R38uolxtdZ9EoSImPw0-5">
          <mxGeometry relative="1" as="geometry" />
        </mxCell>
        <mxCell id="6R38uolxtdZ9EoSImPw0-4" value="/globalclassifier/GET/agencies" style="rounded=1;whiteSpace=wrap;html=1;" vertex="1" parent="1">
          <mxGeometry x="94" y="367" width="270" height="100" as="geometry" />
        </mxCell>
        <mxCell id="6R38uolxtdZ9EoSImPw0-22" style="edgeStyle=orthogonalEdgeStyle;rounded=0;orthogonalLoop=1;jettySize=auto;html=1;exitX=0.75;exitY=0;exitDx=0;exitDy=0;entryX=0.75;entryY=1;entryDx=0;entryDy=0;" edge="1" parent="1" source="6R38uolxtdZ9EoSImPw0-5" target="6R38uolxtdZ9EoSImPw0-4">
          <mxGeometry relative="1" as="geometry" />
        </mxCell>
        <mxCell id="6R38uolxtdZ9EoSImPw0-5" value="/globalclassifier/resql/get-integrated-agency" style="rounded=1;whiteSpace=wrap;html=1;" vertex="1" parent="1">
          <mxGeometry x="94" y="550" width="270" height="100" as="geometry" />
        </mxCell>
        <mxCell id="6R38uolxtdZ9EoSImPw0-6" value="GcIntegratedAgencies" style="swimlane;fontStyle=0;childLayout=stackLayout;horizontal=1;startSize=30;horizontalStack=0;resizeParent=1;resizeParentMax=0;resizeLast=0;collapsible=1;marginBottom=0;whiteSpace=wrap;html=1;" vertex="1" parent="1">
          <mxGeometry x="480" y="647" width="230" height="360" as="geometry" />
        </mxCell>
        <mxCell id="6R38uolxtdZ9EoSImPw0-7" value="agency_id: 123" style="text;strokeColor=none;fillColor=none;align=left;verticalAlign=middle;spacingLeft=4;spacingRight=4;overflow=hidden;points=[[0,0.5],[1,0.5]];portConstraint=eastwest;rotatable=0;whiteSpace=wrap;html=1;" vertex="1" parent="6R38uolxtdZ9EoSImPw0-6">
          <mxGeometry y="30" width="230" height="30" as="geometry" />
        </mxCell>
        <mxCell id="6R38uolxtdZ9EoSImPw0-8" value="group_key: String (123_&amp;lt;&amp;lt;epochtimestamp&amp;gt;&amp;gt;)" style="text;strokeColor=none;fillColor=none;align=left;verticalAlign=middle;spacingLeft=4;spacingRight=4;overflow=hidden;points=[[0,0.5],[1,0.5]];portConstraint=eastwest;rotatable=0;whiteSpace=wrap;html=1;" vertex="1" parent="6R38uolxtdZ9EoSImPw0-6">
          <mxGeometry y="60" width="230" height="30" as="geometry" />
        </mxCell>
        <mxCell id="6R38uolxtdZ9EoSImPw0-9" value="agency_name: String" style="text;strokeColor=none;fillColor=none;align=left;verticalAlign=middle;spacingLeft=4;spacingRight=4;overflow=hidden;points=[[0,0.5],[1,0.5]];portConstraint=eastwest;rotatable=0;whiteSpace=wrap;html=1;" vertex="1" parent="6R38uolxtdZ9EoSImPw0-6">
          <mxGeometry y="90" width="230" height="30" as="geometry" />
        </mxCell>
        <mxCell id="Rfnhf9AQ2-6iX-PBm4ZE-25" value="agency_dataset_hash: String" style="text;strokeColor=none;fillColor=none;align=left;verticalAlign=middle;spacingLeft=4;spacingRight=4;overflow=hidden;points=[[0,0.5],[1,0.5]];portConstraint=eastwest;rotatable=0;whiteSpace=wrap;html=1;" vertex="1" parent="6R38uolxtdZ9EoSImPw0-6">
          <mxGeometry y="120" width="230" height="30" as="geometry" />
        </mxCell>
        <mxCell id="6R38uolxtdZ9EoSImPw0-10" value="latest: Bool (true || false)" style="text;strokeColor=none;fillColor=none;align=left;verticalAlign=middle;spacingLeft=4;spacingRight=4;overflow=hidden;points=[[0,0.5],[1,0.5]];portConstraint=eastwest;rotatable=0;whiteSpace=wrap;html=1;" vertex="1" parent="6R38uolxtdZ9EoSImPw0-6">
          <mxGeometry y="150" width="230" height="30" as="geometry" />
        </mxCell>
        <mxCell id="6R38uolxtdZ9EoSImPw0-11" value="deployment_status: (deployed || testing || undeployed&lt;span style=&quot;background-color: transparent; color: light-dark(rgb(0, 0, 0), rgb(255, 255, 255));&quot;&gt;)&lt;/span&gt;" style="text;strokeColor=none;fillColor=none;align=left;verticalAlign=middle;spacingLeft=4;spacingRight=4;overflow=hidden;points=[[0,0.5],[1,0.5]];portConstraint=eastwest;rotatable=0;whiteSpace=wrap;html=1;" vertex="1" parent="6R38uolxtdZ9EoSImPw0-6">
          <mxGeometry y="180" width="230" height="30" as="geometry" />
        </mxCell>
        <mxCell id="6R38uolxtdZ9EoSImPw0-12" value="is_enabled: Bool (true || false)" style="text;strokeColor=none;fillColor=none;align=left;verticalAlign=middle;spacingLeft=4;spacingRight=4;overflow=hidden;points=[[0,0.5],[1,0.5]];portConstraint=eastwest;rotatable=0;whiteSpace=wrap;html=1;" vertex="1" parent="6R38uolxtdZ9EoSImPw0-6">
          <mxGeometry y="210" width="230" height="30" as="geometry" />
        </mxCell>
        <mxCell id="6R38uolxtdZ9EoSImPw0-13" value="enable_allowed: Bool (true || false)" style="text;strokeColor=none;fillColor=none;align=left;verticalAlign=middle;spacingLeft=4;spacingRight=4;overflow=hidden;points=[[0,0.5],[1,0.5]];portConstraint=eastwest;rotatable=0;whiteSpace=wrap;html=1;" vertex="1" parent="6R38uolxtdZ9EoSImPw0-6">
          <mxGeometry y="240" width="230" height="30" as="geometry" />
        </mxCell>
        <mxCell id="6R38uolxtdZ9EoSImPw0-14" value="last_model_trained: String" style="text;strokeColor=none;fillColor=none;align=left;verticalAlign=middle;spacingLeft=4;spacingRight=4;overflow=hidden;points=[[0,0.5],[1,0.5]];portConstraint=eastwest;rotatable=0;whiteSpace=wrap;html=1;" vertex="1" parent="6R38uolxtdZ9EoSImPw0-6">
          <mxGeometry y="270" width="230" height="30" as="geometry" />
        </mxCell>
        <mxCell id="6R38uolxtdZ9EoSImPw0-15" value="last_updated_timestamp: Int" style="text;strokeColor=none;fillColor=none;align=left;verticalAlign=middle;spacingLeft=4;spacingRight=4;overflow=hidden;points=[[0,0.5],[1,0.5]];portConstraint=eastwest;rotatable=0;whiteSpace=wrap;html=1;" vertex="1" parent="6R38uolxtdZ9EoSImPw0-6">
          <mxGeometry y="300" width="230" height="30" as="geometry" />
        </mxCell>
        <mxCell id="6R38uolxtdZ9EoSImPw0-16" value="last_trained_timestamp: Int" style="text;strokeColor=none;fillColor=none;align=left;verticalAlign=middle;spacingLeft=4;spacingRight=4;overflow=hidden;points=[[0,0.5],[1,0.5]];portConstraint=eastwest;rotatable=0;whiteSpace=wrap;html=1;" vertex="1" parent="6R38uolxtdZ9EoSImPw0-6">
          <mxGeometry y="330" width="230" height="30" as="geometry" />
        </mxCell>
        <mxCell id="6R38uolxtdZ9EoSImPw0-18" style="edgeStyle=orthogonalEdgeStyle;rounded=0;orthogonalLoop=1;jettySize=auto;html=1;exitX=0.25;exitY=1;exitDx=0;exitDy=0;entryX=0.3;entryY=0.047;entryDx=0;entryDy=0;entryPerimeter=0;" edge="1" parent="1" source="6R38uolxtdZ9EoSImPw0-1" target="6R38uolxtdZ9EoSImPw0-4">
          <mxGeometry relative="1" as="geometry" />
        </mxCell>
        <mxCell id="6R38uolxtdZ9EoSImPw0-20" style="edgeStyle=orthogonalEdgeStyle;rounded=0;orthogonalLoop=1;jettySize=auto;html=1;exitX=0.25;exitY=1;exitDx=0;exitDy=0;entryX=-0.003;entryY=0.866;entryDx=0;entryDy=0;entryPerimeter=0;" edge="1" parent="1" source="6R38uolxtdZ9EoSImPw0-5" target="6R38uolxtdZ9EoSImPw0-12">
          <mxGeometry relative="1" as="geometry">
            <Array as="points">
              <mxPoint x="162" y="883" />
            </Array>
          </mxGeometry>
        </mxCell>
        <mxCell id="6R38uolxtdZ9EoSImPw0-21" style="edgeStyle=orthogonalEdgeStyle;rounded=0;orthogonalLoop=1;jettySize=auto;html=1;exitX=0;exitY=0.5;exitDx=0;exitDy=0;entryX=0.75;entryY=1;entryDx=0;entryDy=0;" edge="1" parent="1" source="6R38uolxtdZ9EoSImPw0-12" target="6R38uolxtdZ9EoSImPw0-5">
          <mxGeometry relative="1" as="geometry" />
        </mxCell>
        <mxCell id="6R38uolxtdZ9EoSImPw0-23" style="edgeStyle=orthogonalEdgeStyle;rounded=0;orthogonalLoop=1;jettySize=auto;html=1;exitX=0.75;exitY=0;exitDx=0;exitDy=0;entryX=0.8;entryY=0.99;entryDx=0;entryDy=0;entryPerimeter=0;" edge="1" parent="1" source="6R38uolxtdZ9EoSImPw0-4" target="6R38uolxtdZ9EoSImPw0-1">
          <mxGeometry relative="1" as="geometry" />
        </mxCell>
        <mxCell id="a4V3IEd3SIcBsCi2HnZb-5" style="edgeStyle=orthogonalEdgeStyle;rounded=0;orthogonalLoop=1;jettySize=auto;html=1;exitX=0.5;exitY=1;exitDx=0;exitDy=0;" edge="1" parent="1" source="a4V3IEd3SIcBsCi2HnZb-1" target="a4V3IEd3SIcBsCi2HnZb-4">
          <mxGeometry relative="1" as="geometry" />
        </mxCell>
        <mxCell id="a4V3IEd3SIcBsCi2HnZb-8" style="edgeStyle=orthogonalEdgeStyle;rounded=0;orthogonalLoop=1;jettySize=auto;html=1;exitX=1;exitY=0.5;exitDx=0;exitDy=0;entryX=0;entryY=0.5;entryDx=0;entryDy=0;" edge="1" parent="1" source="a4V3IEd3SIcBsCi2HnZb-1" target="a4V3IEd3SIcBsCi2HnZb-7">
          <mxGeometry relative="1" as="geometry" />
        </mxCell>
        <mxCell id="a4V3IEd3SIcBsCi2HnZb-1" value="/globalclassifier/POST/agency/enable" style="rounded=1;whiteSpace=wrap;html=1;" vertex="1" parent="1">
          <mxGeometry x="476" y="154" width="270" height="100" as="geometry" />
        </mxCell>
        <mxCell id="a4V3IEd3SIcBsCi2HnZb-3" style="edgeStyle=orthogonalEdgeStyle;rounded=0;orthogonalLoop=1;jettySize=auto;html=1;exitX=1;exitY=0.5;exitDx=0;exitDy=0;entryX=0.016;entryY=0.616;entryDx=0;entryDy=0;entryPerimeter=0;" edge="1" parent="1" source="6R38uolxtdZ9EoSImPw0-1" target="a4V3IEd3SIcBsCi2HnZb-1">
          <mxGeometry relative="1" as="geometry" />
        </mxCell>
        <mxCell id="a4V3IEd3SIcBsCi2HnZb-17" style="edgeStyle=orthogonalEdgeStyle;rounded=0;orthogonalLoop=1;jettySize=auto;html=1;exitX=1;exitY=0.5;exitDx=0;exitDy=0;entryX=1;entryY=0.5;entryDx=0;entryDy=0;" edge="1" parent="1" source="a4V3IEd3SIcBsCi2HnZb-4" target="6R38uolxtdZ9EoSImPw0-15">
          <mxGeometry relative="1" as="geometry">
            <Array as="points">
              <mxPoint x="1180" y="279" />
              <mxPoint x="1180" y="932" />
            </Array>
          </mxGeometry>
        </mxCell>
        <mxCell id="a4V3IEd3SIcBsCi2HnZb-4" value="/globalclassifier/POST/resql&lt;div&gt;/enable-agency-status&lt;/div&gt;" style="rounded=1;whiteSpace=wrap;html=1;" vertex="1" parent="1">
          <mxGeometry x="820" y="229" width="270" height="100" as="geometry" />
        </mxCell>
        <mxCell id="a4V3IEd3SIcBsCi2HnZb-7" value="/globalclassifier/POST/inference/agency&lt;div&gt;/status/enable&lt;/div&gt;" style="rounded=1;whiteSpace=wrap;html=1;" vertex="1" parent="1">
          <mxGeometry x="820" y="50" width="270" height="100" as="geometry" />
        </mxCell>
        <mxCell id="a4V3IEd3SIcBsCi2HnZb-14" style="edgeStyle=orthogonalEdgeStyle;rounded=0;orthogonalLoop=1;jettySize=auto;html=1;exitX=1;exitY=0.5;exitDx=0;exitDy=0;entryX=0;entryY=0.5;entryDx=0;entryDy=0;" edge="1" parent="1" source="a4V3IEd3SIcBsCi2HnZb-9" target="a4V3IEd3SIcBsCi2HnZb-13">
          <mxGeometry relative="1" as="geometry" />
        </mxCell>
        <mxCell id="a4V3IEd3SIcBsCi2HnZb-15" style="edgeStyle=orthogonalEdgeStyle;rounded=0;orthogonalLoop=1;jettySize=auto;html=1;exitX=1;exitY=0.75;exitDx=0;exitDy=0;entryX=0;entryY=0.5;entryDx=0;entryDy=0;" edge="1" parent="1" source="a4V3IEd3SIcBsCi2HnZb-9" target="a4V3IEd3SIcBsCi2HnZb-12">
          <mxGeometry relative="1" as="geometry" />
        </mxCell>
        <mxCell id="a4V3IEd3SIcBsCi2HnZb-9" value="/globalclassifier/POST/agency/disable" style="rounded=1;whiteSpace=wrap;html=1;" vertex="1" parent="1">
          <mxGeometry x="480" y="379" width="270" height="100" as="geometry" />
        </mxCell>
        <mxCell id="a4V3IEd3SIcBsCi2HnZb-16" style="edgeStyle=orthogonalEdgeStyle;rounded=0;orthogonalLoop=1;jettySize=auto;html=1;exitX=1;exitY=0.5;exitDx=0;exitDy=0;entryX=1;entryY=0.5;entryDx=0;entryDy=0;" edge="1" parent="1" source="a4V3IEd3SIcBsCi2HnZb-12" target="6R38uolxtdZ9EoSImPw0-11">
          <mxGeometry relative="1" as="geometry" />
        </mxCell>
        <mxCell id="a4V3IEd3SIcBsCi2HnZb-12" value="/globalclassifier/POST/resql&lt;div&gt;/disable-agency-status&lt;/div&gt;" style="rounded=1;whiteSpace=wrap;html=1;" vertex="1" parent="1">
          <mxGeometry x="830" y="558" width="270" height="100" as="geometry" />
        </mxCell>
        <mxCell id="a4V3IEd3SIcBsCi2HnZb-13" value="/globalclassifier/POST/inference/agency&lt;div&gt;/status/enable&lt;/div&gt;" style="rounded=1;whiteSpace=wrap;html=1;" vertex="1" parent="1">
          <mxGeometry x="830" y="379" width="270" height="100" as="geometry" />
        </mxCell>
        <mxCell id="a4V3IEd3SIcBsCi2HnZb-18" value="/globalclassifier/POST/agency/resync" style="rounded=1;whiteSpace=wrap;html=1;" vertex="1" parent="1">
          <mxGeometry x="-270" y="179" width="270" height="100" as="geometry" />
        </mxCell>
        <mxCell id="a4V3IEd3SIcBsCi2HnZb-19" style="edgeStyle=orthogonalEdgeStyle;rounded=0;orthogonalLoop=1;jettySize=auto;html=1;exitX=0;exitY=0.5;exitDx=0;exitDy=0;entryX=0.994;entryY=0.36;entryDx=0;entryDy=0;entryPerimeter=0;" edge="1" parent="1" source="6R38uolxtdZ9EoSImPw0-1" target="a4V3IEd3SIcBsCi2HnZb-18">
          <mxGeometry relative="1" as="geometry" />
        </mxCell>
        <mxCell id="Rfnhf9AQ2-6iX-PBm4ZE-1" value="" style="rounded=1;whiteSpace=wrap;html=1;arcSize=9;dashed=1;fillColor=none;" vertex="1" parent="1">
          <mxGeometry x="-800" y="329" width="550" height="360" as="geometry" />
        </mxCell>
        <mxCell id="Rfnhf9AQ2-6iX-PBm4ZE-13" style="edgeStyle=orthogonalEdgeStyle;rounded=0;orthogonalLoop=1;jettySize=auto;html=1;exitX=1;exitY=0.75;exitDx=0;exitDy=0;" edge="1" parent="1" source="Rfnhf9AQ2-6iX-PBm4ZE-2" target="Rfnhf9AQ2-6iX-PBm4ZE-9">
          <mxGeometry relative="1" as="geometry" />
        </mxCell>
        <mxCell id="Rfnhf9AQ2-6iX-PBm4ZE-2" value="/ckb/GET/agency/data/&lt;div&gt;latest/hash&lt;/div&gt;" style="rounded=1;whiteSpace=wrap;html=1;" vertex="1" parent="1">
          <mxGeometry x="-470" y="389" width="180" height="80" as="geometry" />
        </mxCell>
        <mxCell id="Rfnhf9AQ2-6iX-PBm4ZE-3" value="Common Knowledge Base" style="text;html=1;align=center;verticalAlign=middle;whiteSpace=wrap;rounded=0;" vertex="1" parent="1">
          <mxGeometry x="-630" y="337" width="192" height="30" as="geometry" />
        </mxCell>
        <mxCell id="Rfnhf9AQ2-6iX-PBm4ZE-4" value="/ckb/GET/agency/data/import" style="rounded=1;whiteSpace=wrap;html=1;" vertex="1" parent="1">
          <mxGeometry x="-750" y="389" width="180" height="80" as="geometry" />
        </mxCell>
        <mxCell id="Rfnhf9AQ2-6iX-PBm4ZE-8" value="Retrieves Hash to Check if Hash Matches and if not update" style="text;html=1;align=center;verticalAlign=middle;whiteSpace=wrap;rounded=0;" vertex="1" parent="1">
          <mxGeometry x="-540" y="169" width="192" height="30" as="geometry" />
        </mxCell>
        <mxCell id="Rfnhf9AQ2-6iX-PBm4ZE-12" style="edgeStyle=orthogonalEdgeStyle;rounded=0;orthogonalLoop=1;jettySize=auto;html=1;exitX=0.75;exitY=0;exitDx=0;exitDy=0;entryX=1;entryY=0.25;entryDx=0;entryDy=0;" edge="1" parent="1" source="Rfnhf9AQ2-6iX-PBm4ZE-9" target="Rfnhf9AQ2-6iX-PBm4ZE-2">
          <mxGeometry relative="1" as="geometry" />
        </mxCell>
        <mxCell id="Rfnhf9AQ2-6iX-PBm4ZE-20" style="edgeStyle=orthogonalEdgeStyle;rounded=0;orthogonalLoop=1;jettySize=auto;html=1;exitX=0.75;exitY=1;exitDx=0;exitDy=0;entryX=0;entryY=0.5;entryDx=0;entryDy=0;" edge="1" parent="1" source="Rfnhf9AQ2-6iX-PBm4ZE-9" target="Rfnhf9AQ2-6iX-PBm4ZE-19">
          <mxGeometry relative="1" as="geometry" />
        </mxCell>
        <mxCell id="Rfnhf9AQ2-6iX-PBm4ZE-29" style="edgeStyle=orthogonalEdgeStyle;rounded=0;orthogonalLoop=1;jettySize=auto;html=1;exitX=0.25;exitY=1;exitDx=0;exitDy=0;entryX=0;entryY=0.5;entryDx=0;entryDy=0;" edge="1" parent="1" source="Rfnhf9AQ2-6iX-PBm4ZE-9" target="Rfnhf9AQ2-6iX-PBm4ZE-26">
          <mxGeometry relative="1" as="geometry" />
        </mxCell>
        <mxCell id="Rfnhf9AQ2-6iX-PBm4ZE-30" value="IF THERE IS A HASH MISMATCH" style="edgeLabel;html=1;align=center;verticalAlign=middle;resizable=0;points=[];" vertex="1" connectable="0" parent="Rfnhf9AQ2-6iX-PBm4ZE-29">
          <mxGeometry x="0.2022" y="-2" relative="1" as="geometry">
            <mxPoint as="offset" />
          </mxGeometry>
        </mxCell>
        <mxCell id="Rfnhf9AQ2-6iX-PBm4ZE-9" value="" style="rounded=1;whiteSpace=wrap;html=1;" vertex="1" parent="1">
          <mxGeometry x="-195" y="639" width="190" height="150" as="geometry" />
        </mxCell>
        <mxCell id="Rfnhf9AQ2-6iX-PBm4ZE-10" value="" style="html=1;verticalLabelPosition=bottom;align=center;labelBackgroundColor=#ffffff;verticalAlign=top;strokeWidth=2;strokeColor=#0080F0;shadow=0;dashed=0;shape=mxgraph.ios7.icons.settings;" vertex="1" parent="1">
          <mxGeometry x="-131" y="658" width="60" height="52" as="geometry" />
        </mxCell>
        <mxCell id="Rfnhf9AQ2-6iX-PBm4ZE-11" value="CRONJOB: /global/classifier/cronmanager/&lt;div&gt;check-agency-updates&lt;/div&gt;" style="text;html=1;align=center;verticalAlign=middle;whiteSpace=wrap;rounded=0;" vertex="1" parent="1">
          <mxGeometry x="-197" y="739" width="192" height="30" as="geometry" />
        </mxCell>
        <mxCell id="Rfnhf9AQ2-6iX-PBm4ZE-22" style="edgeStyle=orthogonalEdgeStyle;rounded=0;orthogonalLoop=1;jettySize=auto;html=1;exitX=0;exitY=0.5;exitDx=0;exitDy=0;entryX=1;entryY=0.75;entryDx=0;entryDy=0;" edge="1" parent="1" source="Rfnhf9AQ2-6iX-PBm4ZE-14" target="Rfnhf9AQ2-6iX-PBm4ZE-19">
          <mxGeometry relative="1" as="geometry" />
        </mxCell>
        <mxCell id="Rfnhf9AQ2-6iX-PBm4ZE-14" value="/globalclassifier/resql/get-all-agency-hash" style="rounded=1;whiteSpace=wrap;html=1;" vertex="1" parent="1">
          <mxGeometry x="240" y="889" width="190" height="100" as="geometry" />
        </mxCell>
        <mxCell id="Rfnhf9AQ2-6iX-PBm4ZE-18" value="&lt;span style=&quot;font-size: 11px;&quot;&gt;This CronManager function&lt;/span&gt;&lt;div&gt;&lt;span style=&quot;font-size: 11px;&quot;&gt;will routinely check every 24 hours if there is a hash mismatch&amp;nbsp;&lt;/span&gt;&lt;/div&gt;&lt;div&gt;&lt;span style=&quot;font-size: 11px;&quot;&gt;and&lt;/span&gt;&lt;span style=&quot;font-size: 11px; background-color: transparent; color: light-dark(rgb(102, 102, 102), rgb(149, 149, 149));&quot;&gt;&amp;nbsp;if so will update the status of the agency in the database&lt;/span&gt;&lt;/div&gt;&lt;div&gt;&lt;span style=&quot;font-size: 11px; background-color: transparent; color: light-dark(rgb(102, 102, 102), rgb(149, 149, 149));&quot;&gt;which will be reflected in the UI&lt;/span&gt;&lt;/div&gt;" style="strokeWidth=1;shadow=0;dashed=0;align=center;html=1;shape=mxgraph.mockup.text.stickyNote2;fontColor=#666666;mainText=;fontSize=17;whiteSpace=wrap;fillColor=#ffffcc;strokeColor=#F62E00;" vertex="1" parent="1">
          <mxGeometry x="-570" y="719" width="375" height="90" as="geometry" />
        </mxCell>
        <mxCell id="Rfnhf9AQ2-6iX-PBm4ZE-21" style="edgeStyle=orthogonalEdgeStyle;rounded=0;orthogonalLoop=1;jettySize=auto;html=1;exitX=1;exitY=0.5;exitDx=0;exitDy=0;entryX=0;entryY=0.25;entryDx=0;entryDy=0;" edge="1" parent="1" source="Rfnhf9AQ2-6iX-PBm4ZE-19" target="Rfnhf9AQ2-6iX-PBm4ZE-14">
          <mxGeometry relative="1" as="geometry" />
        </mxCell>
        <mxCell id="Rfnhf9AQ2-6iX-PBm4ZE-23" style="edgeStyle=orthogonalEdgeStyle;rounded=0;orthogonalLoop=1;jettySize=auto;html=1;exitX=0;exitY=0.75;exitDx=0;exitDy=0;entryX=0.5;entryY=1;entryDx=0;entryDy=0;" edge="1" parent="1" source="Rfnhf9AQ2-6iX-PBm4ZE-19" target="Rfnhf9AQ2-6iX-PBm4ZE-9">
          <mxGeometry relative="1" as="geometry" />
        </mxCell>
        <mxCell id="Rfnhf9AQ2-6iX-PBm4ZE-19" value="/globalclassifier/GET/agency&lt;div&gt;/all/hash&lt;/div&gt;" style="rounded=1;whiteSpace=wrap;html=1;" vertex="1" parent="1">
          <mxGeometry x="-30" y="865" width="170" height="100" as="geometry" />
        </mxCell>
        <mxCell id="Rfnhf9AQ2-6iX-PBm4ZE-24" value="/globalclassifier/resql/update-agency-sync-status" style="rounded=1;whiteSpace=wrap;html=1;" vertex="1" parent="1">
          <mxGeometry x="200" y="1000" width="240" height="90" as="geometry" />
        </mxCell>
        <mxCell id="Rfnhf9AQ2-6iX-PBm4ZE-27" style="edgeStyle=orthogonalEdgeStyle;rounded=0;orthogonalLoop=1;jettySize=auto;html=1;exitX=1;exitY=0.5;exitDx=0;exitDy=0;" edge="1" parent="1" source="Rfnhf9AQ2-6iX-PBm4ZE-26" target="Rfnhf9AQ2-6iX-PBm4ZE-24">
          <mxGeometry relative="1" as="geometry" />
        </mxCell>
        <mxCell id="Rfnhf9AQ2-6iX-PBm4ZE-26" value="/globalclassifier/POST/agency/sync/status" style="rounded=1;whiteSpace=wrap;html=1;" vertex="1" parent="1">
          <mxGeometry x="-110" y="1000" width="240" height="90" as="geometry" />
        </mxCell>
        <mxCell id="Rfnhf9AQ2-6iX-PBm4ZE-32" style="edgeStyle=orthogonalEdgeStyle;rounded=0;orthogonalLoop=1;jettySize=auto;html=1;exitX=1;exitY=0.75;exitDx=0;exitDy=0;entryX=0.657;entryY=1.024;entryDx=0;entryDy=0;entryPerimeter=0;" edge="1" parent="1" source="Rfnhf9AQ2-6iX-PBm4ZE-24" target="6R38uolxtdZ9EoSImPw0-16">
          <mxGeometry relative="1" as="geometry" />
        </mxCell>
        <mxCell id="Rfnhf9AQ2-6iX-PBm4ZE-33" style="edgeStyle=orthogonalEdgeStyle;rounded=0;orthogonalLoop=1;jettySize=auto;html=1;exitX=0;exitY=0.5;exitDx=0;exitDy=0;entryX=1.001;entryY=0.435;entryDx=0;entryDy=0;entryPerimeter=0;" edge="1" parent="1" source="6R38uolxtdZ9EoSImPw0-14" target="Rfnhf9AQ2-6iX-PBm4ZE-14">
          <mxGeometry relative="1" as="geometry" />
        </mxCell>
        <mxCell id="Rfnhf9AQ2-6iX-PBm4ZE-34" value="&lt;span style=&quot;font-size: 11px;&quot;&gt;##TODO - CREATE ARCHITECTURE FOR&lt;/span&gt;&lt;div&gt;&lt;span style=&quot;font-size: 11px;&quot;&gt;- Resync functionality&lt;/span&gt;&lt;/div&gt;&lt;div&gt;&lt;span style=&quot;font-size: 11px;&quot;&gt;- Dataset generation and storage process&lt;/span&gt;&lt;/div&gt;&lt;div&gt;&lt;span style=&quot;font-size: 11px;&quot;&gt;- Dataset versioning and version update&lt;/span&gt;&lt;/div&gt;&lt;div&gt;&lt;span style=&quot;font-size: 11px;&quot;&gt;- Dataset progress (using notification server)&lt;/span&gt;&lt;/div&gt;" style="strokeWidth=1;shadow=0;dashed=0;align=center;html=1;shape=mxgraph.mockup.text.stickyNote2;fontColor=#666666;mainText=;fontSize=17;whiteSpace=wrap;fillColor=#ffffcc;strokeColor=#F62E00;" vertex="1" parent="1">
          <mxGeometry x="-730" y="510" width="375" height="120" as="geometry" />
        </mxCell>
      </root>
    </mxGraphModel>
  </diagram>
  <diagram id="H7Hu1uGrhka-wApFPkRf" name="notes">
    <mxGraphModel dx="2276" dy="1959" grid="1" gridSize="10" guides="1" tooltips="1" connect="1" arrows="1" fold="1" page="1" pageScale="1" pageWidth="850" pageHeight="1100" math="0" shadow="0">
      <root>
        <mxCell id="0" />
        <mxCell id="1" parent="0" />
        <mxCell id="XOiNho5eW0HPhtdA-aHB-1" value="The dataset module of the global classifier first validates whether the dataset exists and then the next ruuter step is to import the data through S3 ferry" style="strokeWidth=1;shadow=0;dashed=0;align=center;html=1;shape=mxgraph.mockup.text.stickyNote2;fontColor=#666666;mainText=;fontSize=17;whiteSpace=wrap;fillColor=#ffffcc;strokeColor=#F62E00;" parent="1" vertex="1">
          <mxGeometry x="-290" y="-10" width="290" height="230" as="geometry" />
        </mxCell>
        <mxCell id="XOiNho5eW0HPhtdA-aHB-2" value="Do we use DMR or CentOps to find the right CKB for the agency?" style="strokeWidth=1;shadow=0;dashed=0;align=center;html=1;shape=mxgraph.mockup.text.stickyNote2;fontColor=#666666;mainText=;fontSize=17;whiteSpace=wrap;fillColor=#ffffcc;strokeColor=#F62E00;" parent="1" vertex="1">
          <mxGeometry x="-830" y="-10" width="290" height="230" as="geometry" />
        </mxCell>
        <mxCell id="XOiNho5eW0HPhtdA-aHB-3" value="There should be a CentOps integrated flow to update the agencies database when needed" style="strokeWidth=1;shadow=0;dashed=0;align=center;html=1;shape=mxgraph.mockup.text.stickyNote2;fontColor=#666666;mainText=;fontSize=17;whiteSpace=wrap;fillColor=#ffffcc;strokeColor=#F62E00;" parent="1" vertex="1">
          <mxGeometry x="-560" y="-10" width="290" height="230" as="geometry" />
        </mxCell>
        <mxCell id="XOiNho5eW0HPhtdA-aHB-4" value="Can we have a shared id for the agencies across the systems?" style="strokeWidth=1;shadow=0;dashed=0;align=center;html=1;shape=mxgraph.mockup.text.stickyNote2;fontColor=#666666;mainText=;fontSize=17;whiteSpace=wrap;fillColor=#ffffcc;strokeColor=#F62E00;" parent="1" vertex="1">
          <mxGeometry x="-830" y="260" width="290" height="230" as="geometry" />
        </mxCell>
        <mxCell id="XOiNho5eW0HPhtdA-aHB-5" value="Do automated updates happen&lt;div&gt;through Centops? If so how are these updates channelled&lt;/div&gt;" style="strokeWidth=1;shadow=0;dashed=0;align=center;html=1;shape=mxgraph.mockup.text.stickyNote2;fontColor=#666666;mainText=;fontSize=17;whiteSpace=wrap;fillColor=#ffffcc;strokeColor=#F62E00;" parent="1" vertex="1">
          <mxGeometry x="-540" y="260" width="290" height="230" as="geometry" />
        </mxCell>
        <mxCell id="XOiNho5eW0HPhtdA-aHB-6" value="#TODO - Write down how exactly dataset synthesis cronmanager script module would function" style="strokeWidth=1;shadow=0;dashed=0;align=center;html=1;shape=mxgraph.mockup.text.stickyNote2;fontColor=#666666;mainText=;fontSize=17;whiteSpace=wrap;fillColor=#ffffcc;strokeColor=#F62E00;" parent="1" vertex="1">
          <mxGeometry x="-250" y="260" width="235" height="230" as="geometry" />
        </mxCell>
        <mxCell id="gPq0glzW4DtG38bRmq07-1" value="Every agency&#39;s dataset should&lt;div&gt;have it&#39;s own hash which will&lt;/div&gt;&lt;div&gt;be compared with the CKB&#39;s&amp;nbsp;&lt;/div&gt;&lt;div&gt;hash when trying to resync&lt;/div&gt;" style="strokeWidth=1;shadow=0;dashed=0;align=center;html=1;shape=mxgraph.mockup.text.stickyNote2;fontColor=#666666;mainText=;fontSize=17;whiteSpace=wrap;fillColor=#ffffcc;strokeColor=#F62E00;" vertex="1" parent="1">
          <mxGeometry x="-830" y="-330" width="290" height="230" as="geometry" />
        </mxCell>
      </root>
    </mxGraphModel>
  </diagram>
</mxfile>
